<svg width="20" height="20" viewBox="0 0 20 20" fill="none" xmlns="http://www.w3.org/2000/svg">
<path d="M12.2028 10L19.6805 2.52197C19.8862 2.31612 19.9997 2.04148 20 1.74864C20 1.45563 19.8865 1.18067 19.6805 0.975143L19.0252 0.320021C18.8192 0.11368 18.5446 0.000671387 18.2514 0.000671387C17.9587 0.000671387 17.6841 0.11368 17.478 0.320021L10.0003 7.79758L2.52228 0.320021C2.31659 0.11368 2.04179 0.000671387 1.74878 0.000671387C1.4561 0.000671387 1.1813 0.11368 0.97561 0.320021L0.32 0.975143C-0.106667 1.40181 -0.106667 2.09579 0.32 2.52197L7.79789 10L0.32 17.4777C0.114146 17.6839 0.000813008 17.9586 0.000813008 18.2514C0.000813008 18.5443 0.114146 18.8189 0.32 19.0249L0.975447 19.68C1.18114 19.8862 1.4561 19.9994 1.74862 19.9994C2.04163 19.9994 2.31642 19.8862 2.52211 19.68L10.0002 12.2023L17.4779 19.68C17.6839 19.8862 17.9585 19.9994 18.2512 19.9994H18.2515C18.5444 19.9994 18.819 19.8862 19.025 19.68L19.6803 19.0249C19.886 18.819 19.9995 18.5443 19.9995 18.2514C19.9995 17.9586 19.886 17.6839 19.6803 17.4779L12.2028 10Z" fill="white"/>
</svg>
