<svg width="57" height="52" viewBox="0 0 57 52" fill="none" xmlns="http://www.w3.org/2000/svg">
<g filter="url(#filter0_d)">
<path d="M37.8759 28.6719C37.8759 28.4844 37.7822 28.3438 37.6884 28.2031L28.8759 20.9844C28.7353 20.8906 28.5947 20.8438 28.5009 20.8438C28.3603 20.8438 28.2197 20.8906 28.1259 20.9844L19.3134 28.2031C19.1728 28.3438 19.1259 28.4844 19.1259 28.6719V35.375C19.1259 35.7031 19.2197 35.9844 19.454 36.1719C19.6415 36.4062 19.9228 36.5 20.2509 36.5H25.6884C25.829 36.5 25.9697 36.4531 26.0634 36.3594C26.1572 36.2656 26.2509 36.125 26.2509 35.9375V30.6875C26.2509 30.5469 26.2978 30.4062 26.3915 30.3125C26.4853 30.2188 26.6259 30.125 26.8134 30.125H30.1884C30.329 30.125 30.4697 30.2188 30.5634 30.3125C30.6572 30.4062 30.7509 30.5469 30.7509 30.6875V35.9375C30.7509 36.125 30.7978 36.2656 30.8915 36.3594C30.9853 36.4531 31.1259 36.5 31.3134 36.5H36.7509C37.0322 36.5 37.3134 36.4062 37.5478 36.1719C37.7353 35.9844 37.8759 35.7031 37.8759 35.375V28.6719ZM41.8134 25.8125C41.9072 25.9062 41.954 26.0469 41.954 26.1875C41.954 26.375 41.954 26.5156 41.8603 26.6094L40.6884 28.0625C40.5947 28.2031 40.454 28.25 40.3134 28.25C40.1259 28.25 39.9853 28.2031 39.8915 28.1094L28.8759 19.0625C28.7353 18.9688 28.5947 18.9219 28.5009 18.9219C28.3603 18.9219 28.2197 18.9688 28.1259 19.0625L17.1103 28.1094C16.9697 28.2031 16.829 28.25 16.6884 28.25C16.5009 28.25 16.4072 28.2031 16.3134 28.0625L15.1415 26.6094C15.0478 26.5156 15.0009 26.375 15.0009 26.1875C15.0009 26.0469 15.0947 25.9062 15.1884 25.8125L27.0947 16.0156C27.4697 15.6875 27.9384 15.5 28.5009 15.5C29.0165 15.5 29.4853 15.6875 29.954 16.0156L34.1259 19.4844V16.0625C34.1259 15.9219 34.1728 15.7812 34.2665 15.6875C34.3603 15.5938 34.5009 15.5 34.6884 15.5H37.3134C37.454 15.5 37.5947 15.5938 37.6884 15.6875C37.7822 15.7812 37.8759 15.9219 37.8759 16.0625V22.5781L41.8134 25.8125Z" fill="#DFDEDE"/>
</g>
<defs>
<filter id="filter0_d" x="0.000915527" y="0.5" width="56.9531" height="51" filterUnits="userSpaceOnUse" color-interpolation-filters="sRGB">
<feFlood flood-opacity="0" result="BackgroundImageFix"/>
<feColorMatrix in="SourceAlpha" type="matrix" values="0 0 0 0 0 0 0 0 0 0 0 0 0 0 0 0 0 0 127 0"/>
<feOffset/>
<feGaussianBlur stdDeviation="7.5"/>
<feColorMatrix type="matrix" values="0 0 0 0 1 0 0 0 0 1 0 0 0 0 1 0 0 0 1 0"/>
<feBlend mode="normal" in2="BackgroundImageFix" result="effect1_dropShadow"/>
<feBlend mode="normal" in="SourceGraphic" in2="effect1_dropShadow" result="shape"/>
</filter>
</defs>
</svg>
