<svg width="20" height="20" viewBox="0 0 20 20" fill="none" xmlns="http://www.w3.org/2000/svg">
<path d="M19.3745 9.37466H11.458C11.113 9.37466 10.833 9.09467 10.833 8.74968C10.833 8.40469 11.113 8.12469 11.458 8.12469H19.3745C19.7194 8.12469 19.9994 8.40469 19.9994 8.74968C19.9994 9.09467 19.7194 9.37466 19.3745 9.37466Z" fill="url(#paint0_linear)"/>
<path d="M16.2493 12.4995C16.0893 12.4995 15.9294 12.4386 15.8076 12.3163C15.5635 12.072 15.5635 11.6762 15.8076 11.4321L18.4909 8.74889L15.8076 6.06557C15.5635 5.82144 15.5635 5.42564 15.8076 5.1815C16.0519 4.93722 16.4477 4.93722 16.6918 5.1815L19.8167 8.3064C20.0609 8.55053 20.0609 8.94633 19.8167 9.19047L16.6918 12.3154C16.5693 12.4386 16.4094 12.4995 16.2493 12.4995V12.4995Z" fill="url(#paint1_linear)"/>
<path d="M6.66651 19.9994C6.48814 19.9994 6.31892 19.9744 6.14986 19.9219L1.13491 18.2511C0.452562 18.0127 0 17.3769 0 16.6662V1.66667C0 0.747505 0.747505 0 1.66667 0C1.84488 0 2.0141 0.0250237 2.18331 0.0775122L7.19811 1.7483C7.88061 1.98663 8.33302 2.62245 8.33302 3.33318V18.3327C8.33302 19.2519 7.58567 19.9994 6.66651 19.9994ZM1.66667 1.24996C1.43749 1.24996 1.24996 1.43749 1.24996 1.66667V16.6662C1.24996 16.8437 1.36913 17.0086 1.53911 17.0678L6.53056 18.7311C6.56641 18.7427 6.6131 18.7494 6.66651 18.7494C6.89569 18.7494 7.08306 18.5619 7.08306 18.3327V3.33318C7.08306 3.15572 6.96389 2.99078 6.79392 2.93158L1.80246 1.26827C1.76661 1.25667 1.71992 1.24996 1.66667 1.24996V1.24996Z" fill="url(#paint2_linear)"/>
<path d="M12.7077 6.66651C12.3627 6.66651 12.0827 6.38652 12.0827 6.04153V2.29165C12.0827 1.71748 11.6154 1.24996 11.0412 1.24996H1.66648C1.32149 1.24996 1.0415 0.969971 1.0415 0.624981C1.0415 0.27999 1.32149 0 1.66648 0H11.0412C12.3053 0 13.3327 1.02749 13.3327 2.29165V6.04153C13.3327 6.38652 13.0527 6.66651 12.7077 6.66651Z" fill="url(#paint3_linear)"/>
<path d="M11.0413 17.4994H7.70799C7.363 17.4994 7.08301 17.2194 7.08301 16.8744C7.08301 16.5294 7.363 16.2494 7.70799 16.2494H11.0413C11.6155 16.2494 12.0829 15.7819 12.0829 15.2077V11.4579C12.0829 11.1129 12.3628 10.8329 12.7078 10.8329C13.0528 10.8329 13.3328 11.1129 13.3328 11.4579V15.2077C13.3328 16.4719 12.3055 17.4994 11.0413 17.4994V17.4994Z" fill="url(#paint4_linear)"/>
<defs>
<linearGradient id="paint0_linear" x1="12.2297" y1="8.1247" x2="19.6109" y2="9.98445" gradientUnits="userSpaceOnUse">
<stop stop-color="#355C7D"/>
<stop offset="0.494792" stop-color="#6C5B7B"/>
<stop offset="1" stop-color="#F5F5F5"/>
</linearGradient>
<linearGradient id="paint1_linear" x1="16.2912" y1="4.99829" x2="20.0365" y2="5.07335" gradientUnits="userSpaceOnUse">
<stop stop-color="#355C7D"/>
<stop offset="0.494792" stop-color="#6C5B7B"/>
<stop offset="1" stop-color="#F5F5F5"/>
</linearGradient>
<linearGradient id="paint2_linear" x1="1.26968" y1="1.05618e-05" x2="8.40433" y2="0.102148" gradientUnits="userSpaceOnUse">
<stop stop-color="#355C7D"/>
<stop offset="0.494792" stop-color="#6C5B7B"/>
<stop offset="1" stop-color="#F5F5F5"/>
</linearGradient>
<linearGradient id="paint3_linear" x1="2.91427" y1="3.52063e-06" x2="13.398" y2="0.664103" gradientUnits="userSpaceOnUse">
<stop stop-color="#355C7D"/>
<stop offset="0.494792" stop-color="#6C5B7B"/>
<stop offset="1" stop-color="#F5F5F5"/>
</linearGradient>
<linearGradient id="paint4_linear" x1="8.03527" y1="10.8329" x2="13.3818" y2="11.0051" gradientUnits="userSpaceOnUse">
<stop stop-color="#355C7D"/>
<stop offset="0.494792" stop-color="#6C5B7B"/>
<stop offset="1" stop-color="#F5F5F5"/>
</linearGradient>
</defs>
</svg>
