<svg width="15" height="15" viewBox="0 0 15 15" fill="none" xmlns="http://www.w3.org/2000/svg">
<path d="M14.5917 11.0085L12.4984 8.91519C11.7508 8.16759 10.4798 8.46666 10.1808 9.43852C9.95652 10.1114 9.20892 10.4852 8.53607 10.3356C7.04086 9.96184 5.02233 8.01807 4.64853 6.4481C4.42424 5.77522 4.87281 5.02762 5.54565 4.80336C6.51754 4.50432 6.81658 3.23339 6.06898 2.48579L3.97568 0.392493C3.3776 -0.130831 2.48047 -0.130831 1.95715 0.392493L0.536697 1.81294C-0.883753 3.30815 0.686219 7.27046 4.19996 10.7842C7.71371 14.298 11.676 15.9427 13.1712 14.4475L14.5917 13.027C15.115 12.4289 15.115 11.5318 14.5917 11.0085Z" fill="url(#paint0_linear)"/>
<defs>
<linearGradient id="paint0_linear" x1="2.29639" y1="7.92161e-06" x2="15.0999" y2="0.438981" gradientUnits="userSpaceOnUse">
<stop stop-color="#355C7D"/>
<stop offset="0.494792" stop-color="#6C5B7B"/>
<stop offset="1" stop-color="#C06C84"/>
</linearGradient>
</defs>
</svg>
