<svg width="16" height="20" viewBox="0 0 16 20" fill="none" xmlns="http://www.w3.org/2000/svg">
<path d="M7.6307 11.3145C6.79992 11.3145 6.12402 11.9904 6.12402 12.8212C6.12402 13.5164 6.59734 14.1028 7.23851 14.2758V16.4428C7.23851 16.6594 7.41413 16.8349 7.63066 16.8349C7.84722 16.8349 8.0228 16.6593 8.0228 16.4428V14.2758C8.66397 14.1028 9.13729 13.5164 9.13729 12.8212C9.13737 11.9904 8.46147 11.3145 7.6307 11.3145ZM7.6307 13.5435C7.23238 13.5435 6.90836 13.2195 6.90836 12.8212C6.90836 12.4229 7.23238 12.0988 7.6307 12.0988C8.02901 12.0988 8.35304 12.4229 8.35304 12.8212C8.35304 13.2195 8.02901 13.5435 7.6307 13.5435Z" fill="url(#paint0_linear)"/>
<path d="M12.9251 7.10039H12.0455V4.41488C12.0455 1.98051 10.065 0 7.63059 0C5.19621 0 3.2157 1.98051 3.2157 4.41488V7.10035H2.33609C1.04797 7.10035 0 8.14816 0 9.43609V17.6639C0 18.9521 1.04801 20 2.33609 20H12.9251C14.2132 20 15.2612 18.9521 15.2612 17.6639V9.43609C15.2612 8.14816 14.2132 7.10039 12.9251 7.10039ZM4 4.41488C4 2.41297 5.62867 0.784297 7.63059 0.784297C9.6325 0.784297 11.2612 2.41297 11.2612 4.41488V7.10035H10.1553V4.41488C10.1553 3.02254 9.0227 1.88977 7.63059 1.88977C6.23848 1.88977 5.1059 3.0225 5.1059 4.41488V7.10035H4V4.41488ZM9.37098 4.41488V7.10035H5.8902V4.41488C5.8902 3.455 6.67094 2.6741 7.63059 2.6741C8.59023 2.6741 9.37098 3.455 9.37098 4.41488ZM14.4769 17.6639C14.4769 18.5196 13.7807 19.2157 12.9251 19.2157H2.33609C1.48043 19.2157 0.784336 18.5195 0.784336 17.6639V9.43609C0.784336 8.5807 1.48047 7.88469 2.33609 7.88469H3.60785H5.49805H9.76316H11.6534H12.9251C13.7808 7.88469 14.4769 8.58066 14.4769 9.43609V17.6639V17.6639Z" fill="url(#paint1_linear)"/>
<path d="M13.5513 10.8985C13.3348 10.8985 13.1592 11.0741 13.1592 11.2906V14.748C13.1592 14.9645 13.3348 15.1401 13.5513 15.1401C13.7679 15.1401 13.9435 14.9645 13.9435 14.748V11.2906C13.9435 11.0741 13.7679 10.8985 13.5513 10.8985Z" fill="url(#paint2_linear)"/>
<path d="M13.5421 9.60455C13.0375 9.60455 13.0366 10.3888 13.5421 10.3888C14.0468 10.3889 14.0477 9.60455 13.5421 9.60455Z" fill="url(#paint3_linear)"/>
<defs>
<linearGradient id="paint0_linear" x1="6.58315" y1="11.3145" x2="9.1627" y2="11.3629" gradientUnits="userSpaceOnUse">
<stop stop-color="#355C7D"/>
<stop offset="0.494792" stop-color="#6C5B7B"/>
<stop offset="1" stop-color="#F5F5F5"/>
</linearGradient>
<linearGradient id="paint1_linear" x1="2.3253" y1="1.05622e-05" x2="15.3855" y2="0.342409" gradientUnits="userSpaceOnUse">
<stop stop-color="#355C7D"/>
<stop offset="0.494792" stop-color="#6C5B7B"/>
<stop offset="1" stop-color="#F5F5F5"/>
</linearGradient>
<linearGradient id="paint2_linear" x1="13.2787" y1="10.8985" x2="13.9503" y2="10.9028" gradientUnits="userSpaceOnUse">
<stop stop-color="#355C7D"/>
<stop offset="0.494792" stop-color="#6C5B7B"/>
<stop offset="1" stop-color="#F5F5F5"/>
</linearGradient>
<linearGradient id="paint3_linear" x1="13.2788" y1="9.60455" x2="13.9269" y2="9.62607" gradientUnits="userSpaceOnUse">
<stop stop-color="#355C7D"/>
<stop offset="0.494792" stop-color="#6C5B7B"/>
<stop offset="1" stop-color="#F5F5F5"/>
</linearGradient>
</defs>
</svg>
