<svg width="12" height="20" viewBox="0 0 12 20" fill="none" xmlns="http://www.w3.org/2000/svg">
<path d="M11.4961 10.9805C11.7539 10.7656 11.8398 10.5078 11.8398 10.25C11.8398 9.94922 11.7539 9.69141 11.4961 9.51953L3.16016 1.18359C2.98828 0.96875 2.73047 0.882812 2.42969 0.882812C2.17188 0.882812 1.91406 0.96875 1.69922 1.18359L0.753906 2.12891C0.582031 2.30078 0.453125 2.55859 0.453125 2.85938C0.453125 3.11719 0.539063 3.375 0.710938 3.58984L7.37109 10.25L0.710938 16.9102C0.539062 17.082 0.453125 17.3398 0.453125 17.6406C0.453125 17.8984 0.582031 18.1562 0.753906 18.3711L1.69922 19.3164C1.91406 19.4883 2.17188 19.6172 2.42969 19.6172C2.73047 19.6172 2.98828 19.4883 3.16016 19.3164L11.4961 10.9805Z" fill="white"/>
</svg>
