<svg width="57" height="52" viewBox="0 0 57 52" fill="none" xmlns="http://www.w3.org/2000/svg">
<rect x="4.00004" y="1" width="50" height="50" rx="10" fill="url(#paint0_linear)" fill-opacity="0.2"/>
<g filter="url(#filter0_d)">
<path d="M37.8753 28.6719C37.8753 28.4844 37.7815 28.3438 37.6878 28.2032L28.8753 20.9844C28.7347 20.8907 28.594 20.8438 28.5003 20.8438C28.3597 20.8438 28.219 20.8907 28.1253 20.9844L19.3128 28.2032C19.1722 28.3438 19.1253 28.4844 19.1253 28.6719V35.3751C19.1253 35.7032 19.219 35.9844 19.4534 36.1719C19.6409 36.4063 19.9222 36.5001 20.2503 36.5001H25.6878C25.8284 36.5001 25.969 36.4532 26.0628 36.3594C26.1565 36.2657 26.2503 36.1251 26.2503 35.9376V30.6876C26.2503 30.5469 26.2972 30.4063 26.3909 30.3126C26.4847 30.2188 26.6253 30.1251 26.8128 30.1251H30.1878C30.3284 30.1251 30.469 30.2188 30.5628 30.3126C30.6565 30.4063 30.7503 30.5469 30.7503 30.6876V35.9376C30.7503 36.1251 30.7972 36.2657 30.8909 36.3594C30.9847 36.4532 31.1253 36.5001 31.3128 36.5001H36.7503C37.0315 36.5001 37.3128 36.4063 37.5472 36.1719C37.7347 35.9844 37.8753 35.7032 37.8753 35.3751V28.6719ZM41.8128 25.8126C41.9065 25.9063 41.9534 26.0469 41.9534 26.1876C41.9534 26.3751 41.9534 26.5157 41.8597 26.6094L40.6878 28.0626C40.594 28.2032 40.4534 28.2501 40.3128 28.2501C40.1253 28.2501 39.9847 28.2032 39.8909 28.1094L28.8753 19.0626C28.7347 18.9688 28.594 18.9219 28.5003 18.9219C28.3597 18.9219 28.219 18.9688 28.1253 19.0626L17.1097 28.1094C16.969 28.2032 16.8284 28.2501 16.6878 28.2501C16.5003 28.2501 16.4065 28.2032 16.3128 28.0626L15.1409 26.6094C15.0472 26.5157 15.0003 26.3751 15.0003 26.1876C15.0003 26.0469 15.094 25.9063 15.1878 25.8126L27.094 16.0157C27.469 15.6876 27.9378 15.5001 28.5003 15.5001C29.0159 15.5001 29.4847 15.6876 29.9534 16.0157L34.1253 19.4844V16.0626C34.1253 15.9219 34.1722 15.7813 34.2659 15.6876C34.3597 15.5938 34.5003 15.5001 34.6878 15.5001H37.3128C37.4534 15.5001 37.594 15.5938 37.6878 15.6876C37.7815 15.7813 37.8753 15.9219 37.8753 16.0626V22.5782L41.8128 25.8126Z" fill="url(#paint1_linear)"/>
</g>
<defs>
<filter id="filter0_d" x="0.000282288" y="0.500061" width="56.9531" height="51" filterUnits="userSpaceOnUse" color-interpolation-filters="sRGB">
<feFlood flood-opacity="0" result="BackgroundImageFix"/>
<feColorMatrix in="SourceAlpha" type="matrix" values="0 0 0 0 0 0 0 0 0 0 0 0 0 0 0 0 0 0 127 0"/>
<feOffset/>
<feGaussianBlur stdDeviation="7.5"/>
<feColorMatrix type="matrix" values="0 0 0 0 1 0 0 0 0 1 0 0 0 0 1 0 0 0 1 0"/>
<feBlend mode="normal" in2="BackgroundImageFix" result="effect1_dropShadow"/>
<feBlend mode="normal" in="SourceGraphic" in2="effect1_dropShadow" result="shape"/>
</filter>
<linearGradient id="paint0_linear" x1="11.6184" y1="1.00003" x2="54.3862" y2="2.46943" gradientUnits="userSpaceOnUse">
<stop stop-color="#A7BAFF"/>
<stop offset="1" stop-color="#AC79FF"/>
</linearGradient>
<linearGradient id="paint1_linear" x1="19.107" y1="15.5001" x2="42.144" y2="16.5159" gradientUnits="userSpaceOnUse">
<stop stop-color="#355C7D"/>
<stop offset="0.494792" stop-color="#6C5B7B"/>
<stop offset="1" stop-color="#F5F5F5"/>
</linearGradient>
</defs>
</svg>
