<svg width="50" height="50" viewBox="0 0 50 50" fill="none" xmlns="http://www.w3.org/2000/svg">
<rect x="0.000244141" width="50" height="50" rx="10" fill="url(#paint0_linear)" fill-opacity="0.2"/>
<path d="M25.0004 26C23.8754 26 22.891 25.7656 21.9535 25.2031C21.016 24.6875 20.3129 23.9844 19.7972 23.0469C19.2347 22.1094 19.0004 21.125 19.0004 20C19.0004 18.9219 19.2347 17.9375 19.7972 17C20.3129 16.0625 21.016 15.3594 21.9535 14.7969C22.891 14.2812 23.8754 14 25.0004 14C26.0785 14 27.0629 14.2812 28.0004 14.7969C28.9379 15.3594 29.641 16.0625 30.2035 17C30.7191 17.9375 31.0004 18.9219 31.0004 20C31.0004 21.125 30.7191 22.1094 30.2035 23.0469C29.641 23.9844 28.9379 24.6875 28.0004 25.2031C27.0629 25.7656 26.0785 26 25.0004 26ZM29.2191 27.5C30.3441 27.5 31.3754 27.7812 32.3597 28.3438C33.2972 28.9062 34.0941 29.7031 34.6566 30.6406C35.2191 31.625 35.5004 32.6562 35.5004 33.7812V35.75C35.5004 36.4062 35.266 36.9219 34.8441 37.3438C34.3754 37.8125 33.8597 38 33.2504 38H16.7504C16.0941 38 15.5785 37.8125 15.1566 37.3438C14.6879 36.9219 14.5004 36.4062 14.5004 35.75V33.7812C14.5004 32.6562 14.7816 31.625 15.3441 30.6406C15.9066 29.7031 16.6566 28.9062 17.641 28.3438C18.5785 27.7812 19.6566 27.5 20.7816 27.5H21.5785C22.6566 28.0156 23.7816 28.25 25.0004 28.25C26.1722 28.25 27.2972 28.0156 28.4222 27.5H29.2191Z" fill="url(#paint1_linear)"/>
<defs>
<linearGradient id="paint0_linear" x1="7.61859" y1="2.64053e-05" x2="50.3864" y2="1.46943" gradientUnits="userSpaceOnUse">
<stop stop-color="#A7BAFF"/>
<stop offset="1" stop-color="#AC79FF"/>
</linearGradient>
<linearGradient id="paint1_linear" x1="17.7001" y1="14" x2="35.6675" y2="14.5402" gradientUnits="userSpaceOnUse">
<stop stop-color="#355C7D"/>
<stop offset="0.494792" stop-color="#6C5B7B"/>
<stop offset="1" stop-color="#F5F5F5"/>
</linearGradient>
</defs>
</svg>
