<svg width="20" height="20" viewBox="0 0 20 20" fill="none" xmlns="http://www.w3.org/2000/svg">
<path d="M6.4953 3.85303H2.99829C2.67465 3.85303 2.41235 4.11533 2.41235 4.43896C2.41235 4.7626 2.67465 5.0249 2.99829 5.0249H6.4953C6.81879 5.0249 7.08124 4.7626 7.08124 4.43896C7.08124 4.11533 6.81879 3.85303 6.4953 3.85303Z" fill="url(#paint0_linear)"/>
<path d="M6.4953 6.1969H2.99829C2.67465 6.1969 2.41235 6.4592 2.41235 6.78284C2.41235 7.10648 2.67465 7.36877 2.99829 7.36877H6.4953C6.81879 7.36877 7.08124 7.10648 7.08124 6.78284C7.08124 6.4592 6.81879 6.1969 6.4953 6.1969Z" fill="url(#paint1_linear)"/>
<path d="M6.4953 8.54077H2.99829C2.67465 8.54077 2.41235 8.80307 2.41235 9.12671C2.41235 9.45035 2.67465 9.71265 2.99829 9.71265H6.4953C6.81879 9.71265 7.08124 9.45035 7.08124 9.12671C7.08124 8.80307 6.81879 8.54077 6.4953 8.54077Z" fill="url(#paint2_linear)"/>
<path d="M6.4953 10.8848H2.99829C2.67465 10.8848 2.41235 11.1471 2.41235 11.4707C2.41235 11.7943 2.67465 12.0566 2.99829 12.0566H6.4953C6.81879 12.0566 7.08124 11.7943 7.08124 11.4707C7.08124 11.1471 6.81879 10.8848 6.4953 10.8848Z" fill="url(#paint3_linear)"/>
<path d="M6.4953 13.2678H2.99829C2.67465 13.2678 2.41235 13.5303 2.41235 13.8538C2.41235 14.1774 2.67465 14.4397 2.99829 14.4397H6.4953C6.81879 14.4397 7.08124 14.1774 7.08124 13.8538C7.08124 13.5303 6.81879 13.2678 6.4953 13.2678Z" fill="url(#paint4_linear)"/>
<path d="M8.46313 5.0249H11.9601C12.2838 5.0249 12.5461 4.7626 12.5461 4.43896C12.5461 4.11533 12.2838 3.85303 11.9601 3.85303H8.46313C8.13965 3.85303 7.8772 4.11533 7.8772 4.43896C7.8772 4.7626 8.13965 5.0249 8.46313 5.0249Z" fill="url(#paint5_linear)"/>
<path d="M8.46313 7.36877H11.9601C12.2838 7.36877 12.5461 7.10648 12.5461 6.78284C12.5461 6.4592 12.2838 6.1969 11.9601 6.1969H8.46313C8.13965 6.1969 7.8772 6.4592 7.8772 6.78284C7.8772 7.10648 8.13965 7.36877 8.46313 7.36877Z" fill="url(#paint6_linear)"/>
<path d="M10.7333 9.12671C10.7333 8.80307 10.471 8.54077 10.1474 8.54077H8.46313C8.13965 8.54077 7.8772 8.80307 7.8772 9.12671C7.8772 9.45035 8.13965 9.71265 8.46313 9.71265H10.1474C10.471 9.71265 10.7333 9.45035 10.7333 9.12671Z" fill="url(#paint7_linear)"/>
<path d="M16.284 13.5152C16.0316 13.3127 15.6629 13.3531 15.4603 13.6055L13.9512 15.4869L13.0169 14.81C12.7549 14.62 12.3884 14.6786 12.1986 14.9406C12.0088 15.2028 12.0674 15.5691 12.3294 15.759L13.7153 16.7631C13.8191 16.8382 13.9393 16.8747 14.0588 16.8747C14.2308 16.8747 14.4007 16.7991 14.5161 16.6553L16.3745 14.3388C16.5769 14.0864 16.5365 13.7176 16.284 13.5152Z" fill="url(#paint8_linear)"/>
<path d="M17.765 11.7165C17.0018 10.9398 16.0211 10.4503 14.9585 10.3061V2.35977C14.9585 1.05865 13.8998 0 12.5987 0H2.35992C1.05865 0 0 1.05865 0 2.35977V15.9329C0 17.2342 1.05865 18.2928 2.35977 18.2928H10.5948C11.5215 19.3814 12.8539 20 14.2953 20C16.9786 20 19.1615 17.8156 19.1615 15.1305C19.1615 13.8451 18.6656 12.6326 17.765 11.7165V11.7165ZM1.17188 15.9329V2.35977C1.17188 1.70486 1.70486 1.17188 2.35992 1.17188H12.5987C13.2538 1.17188 13.7866 1.70486 13.7866 2.35977V10.2875C11.3416 10.5428 9.42917 12.6172 9.42917 15.1305C9.42917 15.827 9.57443 16.5005 9.85306 17.1208H2.35992C1.70486 17.1208 1.17188 16.588 1.17188 15.9329ZM14.2953 18.8281C13.1252 18.8281 12.0494 18.2909 11.3437 17.3543C10.8578 16.7093 10.6009 15.9404 10.6009 15.1305C10.6009 13.0916 12.2583 11.4328 14.2953 11.4328C14.3146 11.4328 14.334 11.4331 14.3532 11.4334L14.3622 11.4336C15.3346 11.4508 16.2463 11.843 16.9293 12.5378C17.6131 13.2335 17.9897 14.1544 17.9897 15.1305C17.9897 17.1693 16.3324 18.8281 14.2953 18.8281V18.8281Z" fill="url(#paint9_linear)"/>
<defs>
<linearGradient id="paint0_linear" x1="3.12374" y1="3.85303" x2="7.04847" y2="4.39027" gradientUnits="userSpaceOnUse">
<stop stop-color="#355C7D"/>
<stop offset="0.494792" stop-color="#6C5B7B"/>
<stop offset="1" stop-color="#F5F5F5"/>
</linearGradient>
<linearGradient id="paint1_linear" x1="3.12374" y1="6.1969" x2="7.04847" y2="6.73414" gradientUnits="userSpaceOnUse">
<stop stop-color="#355C7D"/>
<stop offset="0.494792" stop-color="#6C5B7B"/>
<stop offset="1" stop-color="#F5F5F5"/>
</linearGradient>
<linearGradient id="paint2_linear" x1="3.12374" y1="8.54077" x2="7.04847" y2="9.07801" gradientUnits="userSpaceOnUse">
<stop stop-color="#355C7D"/>
<stop offset="0.494792" stop-color="#6C5B7B"/>
<stop offset="1" stop-color="#F5F5F5"/>
</linearGradient>
<linearGradient id="paint3_linear" x1="3.12374" y1="10.8848" x2="7.04847" y2="11.422" gradientUnits="userSpaceOnUse">
<stop stop-color="#355C7D"/>
<stop offset="0.494792" stop-color="#6C5B7B"/>
<stop offset="1" stop-color="#F5F5F5"/>
</linearGradient>
<linearGradient id="paint4_linear" x1="3.12374" y1="13.2678" x2="7.04847" y2="13.8051" gradientUnits="userSpaceOnUse">
<stop stop-color="#355C7D"/>
<stop offset="0.494792" stop-color="#6C5B7B"/>
<stop offset="1" stop-color="#F5F5F5"/>
</linearGradient>
<linearGradient id="paint5_linear" x1="8.58858" y1="3.85303" x2="12.5133" y2="4.39027" gradientUnits="userSpaceOnUse">
<stop stop-color="#355C7D"/>
<stop offset="0.494792" stop-color="#6C5B7B"/>
<stop offset="1" stop-color="#F5F5F5"/>
</linearGradient>
<linearGradient id="paint6_linear" x1="8.58858" y1="6.1969" x2="12.5133" y2="6.73414" gradientUnits="userSpaceOnUse">
<stop stop-color="#355C7D"/>
<stop offset="0.494792" stop-color="#6C5B7B"/>
<stop offset="1" stop-color="#F5F5F5"/>
</linearGradient>
<linearGradient id="paint7_linear" x1="8.31238" y1="8.54077" x2="10.7412" y2="8.74416" gradientUnits="userSpaceOnUse">
<stop stop-color="#355C7D"/>
<stop offset="0.494792" stop-color="#6C5B7B"/>
<stop offset="1" stop-color="#F5F5F5"/>
</linearGradient>
<linearGradient id="paint8_linear" x1="12.76" y1="13.3862" x2="16.5348" y2="13.5504" gradientUnits="userSpaceOnUse">
<stop stop-color="#355C7D"/>
<stop offset="0.494792" stop-color="#6C5B7B"/>
<stop offset="1" stop-color="#F5F5F5"/>
</linearGradient>
<linearGradient id="paint9_linear" x1="2.91958" y1="1.05621e-05" x2="19.3111" y2="0.539575" gradientUnits="userSpaceOnUse">
<stop stop-color="#355C7D"/>
<stop offset="0.494792" stop-color="#6C5B7B"/>
<stop offset="1" stop-color="#F5F5F5"/>
</linearGradient>
</defs>
</svg>
