<svg width="50" height="50" viewBox="0 0 50 50" fill="none" xmlns="http://www.w3.org/2000/svg">
<path d="M25.0001 26.0001C23.8751 26.0001 22.8907 25.7657 21.9532 25.2032C21.0157 24.6876 20.3126 23.9844 19.797 23.0469C19.2345 22.1094 19.0001 21.1251 19.0001 20.0001C19.0001 18.9219 19.2345 17.9376 19.797 17.0001C20.3126 16.0626 21.0157 15.3594 21.9532 14.7969C22.8907 14.2813 23.8751 14.0001 25.0001 14.0001C26.0782 14.0001 27.0626 14.2813 28.0001 14.7969C28.9376 15.3594 29.6407 16.0626 30.2032 17.0001C30.7189 17.9376 31.0001 18.9219 31.0001 20.0001C31.0001 21.1251 30.7189 22.1094 30.2032 23.0469C29.6407 23.9844 28.9376 24.6876 28.0001 25.2032C27.0626 25.7657 26.0782 26.0001 25.0001 26.0001ZM29.2189 27.5001C30.3439 27.5001 31.3751 27.7813 32.3595 28.3438C33.297 28.9063 34.0939 29.7032 34.6564 30.6407C35.2189 31.6251 35.5001 32.6563 35.5001 33.7813V35.7501C35.5001 36.4063 35.2657 36.9219 34.8439 37.3438C34.3751 37.8126 33.8595 38.0001 33.2501 38.0001H16.7501C16.0939 38.0001 15.5782 37.8126 15.1564 37.3438C14.6876 36.9219 14.5001 36.4063 14.5001 35.7501V33.7813C14.5001 32.6563 14.7814 31.6251 15.3439 30.6407C15.9064 29.7032 16.6564 28.9063 17.6407 28.3438C18.5782 27.7813 19.6564 27.5001 20.7814 27.5001H21.5782C22.6564 28.0157 23.7814 28.2501 25.0001 28.2501C26.172 28.2501 27.297 28.0157 28.422 27.5001H29.2189Z" fill="#DFDEDE"/>
</svg>
