<svg width="38" height="38" viewBox="0 0 38 38" fill="none" xmlns="http://www.w3.org/2000/svg">
<rect width="38" height="38" rx="5" fill="url(#paint0_linear)" fill-opacity="0.2"/>
<path d="M21.1875 13.625C22.1016 13.625 22.875 12.8867 22.875 11.9375C22.875 11.0234 22.1016 10.25 21.1875 10.25C20.2383 10.25 19.5 11.0234 19.5 11.9375C19.5 12.8867 20.2383 13.625 21.1875 13.625ZM24.4922 18.8984L23.6836 18.4766L23.332 17.4219C22.8047 15.875 21.3633 14.7852 19.7461 14.75C18.4805 14.75 17.7773 15.1367 16.4766 15.6641C15.7031 15.9453 15.0703 16.543 14.7188 17.2812L14.4727 17.7383C14.1914 18.3008 14.4375 18.9688 14.9648 19.25C15.5273 19.5312 16.1953 19.3203 16.4766 18.7578L16.7227 18.2656C16.8281 18.0195 17.0391 17.8438 17.2852 17.7383L18.2344 17.3516L17.707 19.4961C17.4961 20.2344 17.707 21.0078 18.2344 21.5703L20.3086 23.8555C20.5898 24.1367 20.7656 24.4883 20.8359 24.8398L21.5039 27.4062C21.6445 28.0039 22.2422 28.3906 22.8398 28.2148C23.4727 28.0742 23.8242 27.4766 23.6836 26.8789L22.9102 23.75C22.8047 23.3633 22.6289 23.0469 22.3828 22.7656L20.7656 21.0078L21.3633 18.6172L21.5742 19.1797C21.75 19.7422 22.1719 20.1992 22.6992 20.4805L23.5078 20.9023C24.0352 21.1836 24.7031 20.9375 24.9844 20.4102C25.2656 19.8477 25.0547 19.1445 24.4922 18.8984ZM16.4414 23.8203C16.3359 24.1016 16.1602 24.3828 15.9492 24.5938L14.1914 26.3516C13.7344 26.7734 13.7344 27.5117 14.1914 27.9336C14.6133 28.3906 15.3516 28.3906 15.7734 27.9336L17.8828 25.8594C18.0938 25.6484 18.2344 25.3672 18.375 25.0859L18.832 23.8906C16.8984 21.7812 17.4961 22.4492 17.1797 22.0273L16.4414 23.8203Z" fill="url(#paint1_linear)"/>
<defs>
<linearGradient id="paint0_linear" x1="5.78994" y1="2.00681e-05" x2="38.2935" y2="1.11677" gradientUnits="userSpaceOnUse">
<stop stop-color="#A7BAFF"/>
<stop offset="1" stop-color="#AC79FF"/>
</linearGradient>
<linearGradient id="paint1_linear" x1="14.2855" y1="9.00001" x2="27.1233" y2="9.31507" gradientUnits="userSpaceOnUse">
<stop stop-color="#355C7D"/>
<stop offset="0.494792" stop-color="#6C5B7B"/>
<stop offset="1" stop-color="#F5F5F5"/>
</linearGradient>
</defs>
</svg>
